<svg xmlns="http://www.w3.org/2000/svg" xmlns:xlink="http://www.w3.org/1999/xlink" width="313" height="53" viewBox="0 0 313 53">
  <defs>
    <polygon id="logo_sams_full-a" points="0 .274 20.852 .274 20.852 29.632 0 29.632"/>
    <polygon id="logo_sams_full-c" points=".279 .315 30.074 .315 30.074 52.649 .279 52.649"/>
  </defs>
  <g fill="none" fill-rule="evenodd">
    <g transform="translate(0 14.429)">
      <mask id="logo_sams_full-b" fill="#fff">
        <use xlink:href="#logo_sams_full-a"/>
      </mask>
      <path fill="#0067A0" d="M-7.01007839e-05,26.6170212 L2.55685599,21.4391669 C4.43170146,22.8048821 7.78392094,24.3411801 10.3404965,24.3411801 C13.5223711,24.3411801 14.7722681,22.8048821 14.7722681,21.1545113 C14.8294002,19.2205377 13.2384629,18.4806437 9.88589295,17.3999351 C4.26135655,15.6930543 1.07948197,13.7015179 1.07948197,8.46715364 C1.07948197,3.68767682 4.71596013,0.273915232 11.3064853,0.273915232 C14.7154865,0.273915232 17.8402289,1.35497483 20.3403733,3.11906755 L17.7834473,7.84133245 C16.3060732,6.93085563 13.8062793,5.5651404 11.0222267,5.5651404 C8.57921433,5.5651404 7.10184031,6.53247815 7.10184031,8.40994172 C7.10184031,9.94623974 8.18139239,10.9704384 11.7610889,12.051498 C17.8402289,13.8717497 20.8517586,16.1482927 20.8517586,20.9270675 C20.8517586,26.3323656 16.4767686,29.6320543 10.3972782,29.6320543 C6.24976529,29.6320543 2.27259731,28.2666901 -7.01007839e-05,26.6170212" mask="url(#logo_sams_full-b)"/>
    </g>
    <path fill="#0067A0" d="M37.611489 20.0511987C32.554769 20.0511987 29.0889862 24.0907815 29.0889862 29.4388675 29.0889862 34.7304437 32.554769 38.7700265 37.611489 38.7700265 42.6114274 38.7700265 46.0772102 34.6163709 46.0772102 29.3254967 46.0772102 24.0907815 42.6114274 20.0511987 37.611489 20.0511987L37.611489 20.0511987zM46.1907735 37.8026887C44.2591464 41.9559934 40.5658866 44.1181126 36.1912471 44.1181126 28.8618597 44.1181126 23.0094957 38.4857219 23.0094957 29.3823576 23.0094957 20.3358543 28.8618597 14.7031126 36.1912471 14.7031126 40.5658866 14.7031126 44.2591464 16.8648808 46.1907735 21.0185364L46.1907735 15.158351 51.872442 15.158351 51.872442 43.6060132 46.1907735 43.6060132 46.1907735 37.8026887zM81.2910071 43.6061185L75.6093385 43.6061185 75.6093385 26.3095159C75.6093385 22.7251715 73.7341426 19.994443 69.9280205 19.994443 65.7801571 19.994443 62.8825412 23.6359993 62.8825412 28.3010523L62.8825412 43.6061185 57.2008727 43.6061185 57.2008727 15.1581053 62.8825412 15.1581053 62.8825412 20.2218868C64.5870418 16.6371914 67.7117842 14.646006 71.3482624 14.646006 75.1550854 14.646006 78.2798279 16.6371914 79.9843284 20.051304 82.3705591 16.2960258 85.5524337 14.646006 89.3592568 14.646006 95.3248335 14.646006 99.6994729 19.1408272 99.6994729 26.3667278L99.6994729 43.6061185 94.0181549 43.6061185 94.0181549 26.3095159C94.0181549 22.7251715 92.1429589 19.994443 88.3364863 19.994443 84.188623 19.994443 81.2910071 23.6359993 81.2910071 28.3010523L81.2910071 43.6061185z"/>
    <polygon fill="#0067A0" points="102.661 6.965 108.797 6.965 105.217 18.174 100.501 18.174"/>
    <path fill="#0067A0" d="M106.756624 41.0460079L109.3132 35.8681536C111.188045 37.2338689 114.540615 38.7701669 117.097191 38.7701669 120.278715 38.7701669 121.528962 37.2338689 121.528962 35.583498 121.585744 33.6495245 119.994806 32.9096305 116.642587 31.8289219 111.0177 30.1220411 107.836176 28.1305046 107.836176 22.8961404 107.836176 18.1166636 111.472304 14.702902 118.063179 14.702902 121.472181 14.702902 124.596923 15.7839616 127.096717 17.5480543L124.540141 22.2703192C123.062767 21.3598424 120.562973 19.9941272 117.778921 19.9941272 115.335908 19.9941272 113.858534 20.9614649 113.858534 22.8389285 113.858534 24.3752265 114.938437 25.3994252 118.517783 26.4804848 124.596923 28.3007364 127.608102 30.5772795 127.608102 35.3560543 127.608102 40.7613523 123.233463 44.0610411 117.153972 44.0610411 113.006459 44.0610411 109.028941 42.6956768 106.756624 41.0460079M141.586058 29.3823225C141.586058 20.3358192 147.836244 14.7030775 156.529092 14.7030775 160.619823 14.7030775 164.256301 16.0112298 167.040003 18.7995212L163.57387 23.0665477C161.414766 20.9047795 158.858541 20.0511636 156.585523 20.0511636 151.358809 20.0511636 147.665549 23.1802695 147.665549 29.3254616 147.665549 35.4703026 151.358809 38.7127795 156.585523 38.7127795 158.858541 38.7127795 161.414766 37.8026536 163.631002 35.5268126L167.096785 39.7373291C164.312382 42.5245675 160.733036 44.0608656 156.529092 44.0608656 147.892675 44.0608656 141.586058 38.4281238 141.586058 29.3823225M178.806911 44.0609709C172.954897 44.2884146 169.71589 41.2161695 169.71589 34.3317854L169.71589 4.91713642 175.39791 3.7788649 175.39791 34.3317854C175.39791 37.0628649 176.875284 38.3148583 178.920123 38.3148583L180.397497 38.3148583 180.397497 43.8907391C179.886112 44.0041099 179.318296 44.0609709 178.806911 44.0609709M182.789441 31.8852212L182.789441 15.1582808 188.470759 15.1582808 188.470759 32.3404596C188.470759 36.0957377 190.857691 38.6558834 194.834509 38.6558834 198.811676 38.6558834 201.197907 36.0957377 201.197907 32.3404596L201.197907 15.1582808 206.879225 15.1582808 206.879225 31.8852212C206.879225 39.6800821 202.049982 44.0608305 194.834509 44.0608305 187.618684 44.0608305 182.789441 39.6800821 182.789441 31.8852212M226.515331 38.7700265C231.571701 38.7700265 235.037834 34.7304437 235.037834 29.3823576 235.037834 24.0907815 231.571701 20.0511987 226.515331 20.0511987 221.515393 20.0511987 218.04961 24.2045033 218.04961 29.4957285 218.04961 34.7304437 221.515393 38.7700265 226.515331 38.7700265M227.935573 44.1181126C223.560583 44.1181126 219.868024 41.9559934 217.936047 37.8026887L217.936047 43.6628742 212.254378 43.6628742 212.254378 4.91706623 217.936047 3.7791457 217.936047 21.0185364C219.868024 16.8648808 223.560583 14.7031126 227.935573 14.7031126 235.26496 14.7031126 241.117324 20.3355033 241.117324 29.4388675 241.117324 38.4853709 235.26496 44.1181126 227.935573 44.1181126"/>
    <g transform="translate(250.96 .038)">
      <mask id="logo_sams_full-d" fill="#fff">
        <use xlink:href="#logo_sams_full-c"/>
      </mask>
      <path fill="#0067A0" d="M29.1586664,4.31009338 L25.1674783,0.314735762 L1.15410426,24.3690139 C-0.0130737962,25.5378219 -0.0130737962,27.4331861 1.15445476,28.601643 L25.1751894,52.6492523 L29.1611199,48.6563517 C30.3791211,47.4362987 30.3787705,45.458802 29.1604189,44.239451 L11.4249206,26.4841 L29.1590169,8.71927219 C30.374915,7.50167616 30.3745645,5.5276894 29.1586664,4.31009338" mask="url(#logo_sams_full-d)"/>
      <path fill="#0067A0" d="M61.0666856,24.4812265 L36.9246766,0.312875497 L32.9166643,4.32788874 C31.7109308,5.53530596 31.7112813,7.49314702 32.9170148,8.70021325 L50.6752959,26.4776768 L32.7641951,44.4197563 C31.6460876,45.5394252 31.6460876,47.3551139 32.7645456,48.4747828 L36.9323877,52.6470411 L61.0670361,28.4713192 C62.1676184,27.369551 62.1672679,25.5833457 61.0666856,24.4812265"/>
    </g>
  </g>
</svg>
