<?xml version="1.0" encoding="UTF-8"?>
<svg width="176px" height="40px" viewBox="0 0 176 40" version="1.1" xmlns="http://www.w3.org/2000/svg" xmlns:xlink="http://www.w3.org/1999/xlink">
    <!-- Generator: Sketch 42 (36781) - http://www.bohemiancoding.com/sketch -->
    <title>logo_sams</title>
    <desc>Created with Sketch.</desc>
    <defs>
        <polyline id="path-1" points="0.029 0.3 177.783 0.3 177.783 39.971 0.029 39.971"></polyline>
        <polyline id="path-3" points="0.029 0.3 177.783 0.3 177.783 39.971 0.029 39.971"></polyline>
        <polyline id="path-5" points="0.029 0.3 177.783 0.3 177.783 39.971 0.029 39.971"></polyline>
    </defs>
    <g id="Page-1" stroke="none" stroke-width="1" fill="none" fill-rule="evenodd">
        <g id="logo_sams">
            <g id="Group">
                <g id="Clipped">
                    <mask id="mask-2" fill="white">
                        <use xlink:href="#path-1"></use>
                    </mask>
                    <g id="a"></g>
                    <polygon id="Shape" fill="#008CD2" fill-rule="nonzero" mask="url(#mask-2)" points="19.849 0.3 0 20.15 19.849 40 24.339 35.51 8.98 20.15 24.34 4.79"></polygon>
                </g>
                <g id="Clipped">
                    <mask id="mask-4" fill="white">
                        <use xlink:href="#path-3"></use>
                    </mask>
                    <g id="a"></g>
                    <polyline id="Shape" fill="#7DBE0F" fill-rule="nonzero" mask="url(#mask-4)" points="48.679 20.15 28.828 0.3 24.341 4.79 39.7 20.15 24.337 35.51 28.827 40 48.678 20.15"></polyline>
                </g>
                <g id="Clipped">
                    <mask id="mask-6" fill="white">
                        <use xlink:href="#path-5"></use>
                    </mask>
                    <g id="a"></g>
                    <path d="M24.34,4.79 L8.98,20.15 L24.338,35.51 L39.7,20.15 L24.34,4.79 L24.34,4.79 Z M59.428,21.067 C59.968,21.32 61.054,21.773 61.558,21.985 C64.596,23.266 65.328,24.493 65.328,26.331 C65.328,28.8 63.509,30.523 60.905,30.523 C58.139,30.523 56.4,28.463 56.031,24.75 L55.069,24.75 L55.069,28.073 C55.069,29.173 55.011,30.389 54.932,30.975 L55.747,30.975 C55.957,30.656 56.167,30.555 56.522,30.555 C56.807,30.555 57.192,30.682 57.68,30.845 C58.54,31.132 59.717,31.523 61.263,31.523 C65.37,31.523 68.129,28.93 68.129,25.073 C68.129,21.108 65.875,19.87 62.16,18.307 C59.402,17.134 57.842,16.362 57.842,14.075 C57.842,11.74 59.476,10.172 61.907,10.172 C64.475,10.172 66.119,12.004 66.397,15.237 L67.259,15.237 L67.259,12.72 C67.259,11.888 67.35,10.527 67.427,9.947 L66.581,9.947 C66.476,10.109 66.233,10.399 65.848,10.399 C65.459,10.399 64.901,10.089 64.513,9.912 C64.075,9.711 63.07,9.27 61.416,9.27 C57.782,9.27 55.232,11.779 55.232,15.236 C55.232,17.865 56.565,19.719 59.428,21.066 L59.428,21.067 Z M86.482,17.271 L86.482,19.459 C88.477,18.124 90.062,17.43 91.396,17.43 C92.882,17.43 93.994,18.157 94.628,19.585 C96.751,18.125 98.497,17.43 99.826,17.43 C102.523,17.43 103.378,19.331 103.378,23.262 L103.378,24.88 C103.378,26.179 103.378,27.924 103.284,30.144 L104.902,30.333 L104.902,30.968 L98.97,30.968 L98.97,30.333 L100.776,30.112 C100.938,28.684 100.971,26.91 100.971,24.785 C100.971,20.725 100.776,18.92 98.305,18.92 C97.418,18.92 96.244,19.331 94.82,20.253 C94.943,21.36 94.976,22.596 94.976,23.961 L94.976,30.144 L96.658,30.333 L96.658,30.968 L90.759,30.968 L90.759,30.333 L92.469,30.112 C92.568,28.653 92.568,26.877 92.568,24.785 C92.568,20.663 92.313,18.92 89.872,18.92 C88.982,18.92 87.81,19.331 86.482,20.219 L86.482,27.097 C86.482,28.24 86.482,29.287 86.572,30.144 L88.444,30.333 L88.444,30.968 L82.07,30.968 L82.07,30.333 L83.944,30.144 C84.008,29.287 84.07,28.273 84.07,27.097 L84.07,21.297 C84.07,20.188 84.008,19.204 83.944,18.287 L81.977,18.189 L82.07,17.555 L86.482,17.271 L86.482,17.271 Z M106.769,14.493 L104.984,18.179 L104.418,18.179 L104.794,14.493 L106.769,14.493 L106.769,14.493 Z M106.36,20.968 C106.36,22.678 107.224,23.882 109.08,24.759 L110.077,25.191 C110.972,25.563 111.742,25.886 112.249,26.484 C112.6,26.892 112.771,27.39 112.771,28.011 C112.771,29.524 111.656,30.58 110.057,30.58 C108.333,30.58 107.297,29.353 107.061,27.035 L107.049,26.915 L106.257,26.915 L106.257,29.119 C106.257,29.823 106.229,30.409 106.174,30.906 L106.158,31.058 L106.836,31.058 L106.876,30.998 C106.979,30.844 107.082,30.791 107.274,30.791 C107.44,30.791 107.678,30.871 107.979,30.971 C108.531,31.154 109.286,31.407 110.285,31.407 C112.952,31.407 114.743,29.722 114.743,27.215 C114.743,24.638 113.286,23.839 110.888,22.829 C109.128,22.081 108.208,21.626 108.208,20.231 C108.208,18.781 109.184,17.847 110.693,17.847 C112.271,17.847 113.273,18.974 113.446,20.94 L113.458,21.063 L114.188,21.063 L114.188,19.371 C114.188,18.846 114.218,18.305 114.29,17.666 L114.307,17.514 L113.612,17.514 L113.569,17.574 C113.459,17.738 113.336,17.801 113.131,17.801 C113.008,17.801 112.813,17.717 112.563,17.61 C112.071,17.402 111.323,17.082 110.326,17.082 C108.027,17.082 106.36,18.715 106.36,20.968 L106.36,20.968 Z M70.276,20.775 C70.346,18.612 72.348,17.079 75.219,17.079 C78.229,17.079 79.533,18.634 79.533,21.899 L79.533,22.407 L79.391,27.097 C79.391,28.24 79.391,29.287 79.487,30.144 L81.357,30.333 L81.357,30.968 L77.067,30.968 L76.995,29.574 C75.539,30.651 74.081,31.127 72.621,31.127 C70.657,31.127 69.387,29.891 69.387,28.081 C69.387,25.545 71.922,23.971 77.059,23.306 L77.155,20.853 L77.155,20.505 C77.155,18.57 76.362,17.762 74.619,17.762 C73.139,17.762 72.304,18.444 72.304,19.332 C72.304,19.858 72.406,20.111 72.406,20.776 C72.406,21.426 71.975,21.84 71.34,21.84 C70.676,21.84 70.276,21.363 70.276,20.776 L70.276,20.775 L70.276,20.775 Z M76.964,28.115 C76.964,26.813 76.994,25.469 77.059,23.947 C73.319,24.485 71.574,25.484 71.574,27.576 C71.574,29 72.496,29.953 73.95,29.953 C74.934,29.953 75.886,29.555 76.964,28.889 L76.964,28.114 L76.964,28.115 Z M145.731,27.097 C145.731,28.24 145.731,29.287 145.823,30.144 L147.694,30.333 L147.694,30.968 L141.32,30.968 L141.32,30.333 L143.194,30.144 C143.257,29.287 143.321,28.273 143.321,27.097 L143.321,13.688 C143.321,12.578 143.257,11.595 143.194,10.677 L141.227,10.582 L141.32,9.948 L145.731,9.663 L145.731,27.097 L145.731,27.097 Z M149.762,21.295 C149.762,20.185 149.699,19.205 149.634,18.283 L147.667,18.189 L147.763,17.555 L152.172,17.271 L152.172,23.739 C152.172,27.859 152.425,29.637 154.866,29.637 C155.756,29.637 156.929,29.191 158.256,28.305 L158.256,21.295 C158.256,20.185 158.195,19.205 158.129,18.283 L156.165,18.189 L156.256,17.555 L160.668,17.271 L160.668,27.225 C160.668,28.335 160.723,29.222 160.788,30.139 L162.668,30.333 L162.668,30.965 L158.333,30.965 L158.257,29.065 C156.262,30.396 154.679,31.127 153.34,31.127 C152.061,31.127 149.762,30.487 149.762,26.542 L149.762,21.295 L149.762,21.295 Z M166.639,26.49 C166.639,27.826 166.639,28.852 166.702,29.807 C166.968,29.904 167.738,30.215 168.659,30.215 C171.267,30.215 173.203,28.111 173.203,24.431 C173.203,20.973 171.433,18.651 168.802,18.651 C168.023,18.651 167.027,19.02 166.639,19.235 L166.639,26.49 L166.639,26.49 Z M169.119,17.392 C169.608,17.178 170.006,17.087 170.373,17.087 C173.453,17.087 175.861,20.182 175.861,23.665 C175.861,28.135 172.573,31.125 168.737,31.125 C166.454,31.125 164.489,30.4 164.09,30.27 C164.15,29.561 164.226,28.45 164.226,26.741 L164.226,14.26 C164.226,12.525 164.124,11.066 164.1,10.678 L162.134,10.583 L162.227,9.949 C163.32,9.879 165.734,9.734 166.639,9.658 L166.639,18.464 L169.119,17.393 L169.119,17.392 Z M140.216,24.747 C139.585,27.673 137.358,31.517 132.574,31.517 C126.359,31.517 122.168,26.91 122.168,20.393 C122.168,14.143 126.131,9.271 132.574,9.271 C135.788,9.271 136.984,10.449 137.919,10.449 C138.484,10.449 138.693,10.109 138.762,9.948 L139.608,9.948 C139.568,10.194 139.438,11.147 139.438,12.267 L139.438,15.234 L138.627,15.234 C138.068,12.464 136.293,10.172 132.855,10.172 C128.241,10.172 125.926,14.903 125.926,20.393 C125.926,25.503 127.893,30.473 132.856,30.473 C137.017,30.473 138.648,26.998 139.24,24.747 L140.216,24.747 L140.216,24.747 Z" id="Shape" fill="#005291" fill-rule="nonzero" mask="url(#mask-6)"></path>
                </g>
            </g>
        </g>
    </g>
</svg>