<svg xmlns="http://www.w3.org/2000/svg" xmlns:xlink="http://www.w3.org/1999/xlink" width="60" height="60" viewBox="0 0 60 60">
  <defs>
    <circle id="icon_chat-b" cx="26" cy="26" r="26"/>
    <filter id="icon_chat-a" width="123.1%" height="123.1%" x="-11.5%" y="-11.5%" filterUnits="objectBoundingBox">
      <feOffset in="SourceAlpha" result="shadowOffsetOuter1"/>
      <feGaussianBlur in="shadowOffsetOuter1" result="shadowBlurOuter1" stdDeviation="2"/>
      <feColorMatrix in="shadowBlurOuter1" values="0 0 0 0 0.258823529   0 0 0 0 0.258823529   0 0 0 0 0.258823529  0 0 0 0.4 0"/>
    </filter>
  </defs>
  <g fill="none" fill-rule="evenodd" transform="translate(4 4)">
    <use fill="#000" filter="url(#icon_chat-a)" xlink:href="#icon_chat-b"/>
    <use fill="#EEE" xlink:href="#icon_chat-b"/>
    <g transform="translate(2 2)">
      <circle cx="24" cy="24" r="24" fill="#424242"/>
      <path fill="#424242" stroke="#FFF" d="M14.5528711,35.8793569 L15.7142171,34.5026694 L15.946573,34.5026694 L22,34.5026694 C22.8284271,34.5026694 23.5,33.8310965 23.5,33.0026694 L23.5,23.58 C23.5,23.0277153 23.0522847,22.58 22.5,22.58 L10.64,22.58 C9.81157288,22.58 9.14,23.2515729 9.14,24.08 L9.14,33.0026694 C9.14,33.8310965 9.81157288,34.5026694 10.64,34.5026694 L13.0857829,34.5026694 L14.2471289,35.8793569 C14.2544102,35.8879884 14.2624095,35.8959877 14.271041,35.903269 C14.3554694,35.9744911 14.481649,35.9637853 14.5528711,35.8793569 Z"/>
      <path fill="#424242" stroke="#FFF" stroke-width=".972" d="M32.4871821,32.1734854 L34.3031145,30.3499011 L34.5050211,30.3499011 L35.44,30.3499011 C36.2761591,30.3499011 36.954,29.6720602 36.954,28.8359011 L36.954,15.44 C36.954,14.6038409 36.2761591,13.926 35.44,13.926 L17.36,13.926 C16.5238409,13.926 15.846,14.6038409 15.846,15.44 L15.846,28.8359011 C15.846,29.6720602 16.5238409,30.3499011 17.36,30.3499011 L29.9824983,30.3499011 L31.7984308,32.1734854 C31.7991523,32.1742089 31.7991523,32.1742089 31.7998758,32.1749304 C31.9900692,32.3643257 32.2977867,32.3636788 32.4871821,32.1734854 Z"/>
      <ellipse cx="21.009" cy="21.997" fill="#FFF" rx="1" ry="1"/>
      <ellipse cx="32.529" cy="21.997" fill="#FFF" rx="1" ry="1"/>
      <ellipse cx="26.769" cy="21.997" fill="#FFF" rx="1" ry="1"/>
    </g>
  </g>
</svg>
