<svg xmlns="http://www.w3.org/2000/svg" xmlns:xlink="http://www.w3.org/1999/xlink" width="161" height="68" viewBox="0 0 161 68">
  <defs>
    <path id="icon_chat_xl-b" d="M29,0 L184,0 C185.104569,-2.02906125e-16 186,0.8954305 186,2 L186,56 C186,57.1045695 185.104569,58 184,58 L29,58 C12.9837423,58 1.96142588e-15,45.0162577 0,29 L0,29 C-1.96142588e-15,12.9837423 12.9837423,2.94213882e-15 29,0 Z"/>
    <filter id="icon_chat_xl-a" width="108.6%" height="127.6%" x="-4.3%" y="-12.1%" filterUnits="objectBoundingBox">
      <feOffset dy="1" in="SourceAlpha" result="shadowOffsetOuter1"/>
      <feGaussianBlur in="shadowOffsetOuter1" result="shadowBlurOuter1" stdDeviation="2.5"/>
      <feColorMatrix in="shadowBlurOuter1" values="0 0 0 0 0   0 0 0 0 0   0 0 0 0 0  0 0 0 0.2 0"/>
    </filter>
  </defs>
  <g fill="none" fill-rule="evenodd" transform="translate(5 4)">
    <use fill="#000" filter="url(#icon_chat_xl-a)" xlink:href="#icon_chat_xl-b"/>
    <use fill="#FFF" xlink:href="#icon_chat_xl-b"/>
    <text fill="#424242" font-family="AktivGrotesk-Medium, Aktiv Grotesk" font-size="14" font-weight="400">
      <tspan x="58" y="33">Chat with us</tspan>
    </text>
    <g transform="translate(5 5)">
      <circle cx="24" cy="24" r="24" fill="#424242"/>
      <path fill="#FFF" fill-rule="nonzero" d="M16.4601666,34.0553916 L24,34.0553916 C24.5301934,34.0553916 24.96,33.625585 24.96,33.0953916 L24.96,23.52 C24.96,23.2549033 24.7450967,23.04 24.48,23.04 L12.48,23.04 C11.9498066,23.04 11.52,23.4698066 11.52,24 L11.52,33.0953916 C11.52,33.625585 11.9498066,34.0553916 12.48,34.0553916 L14.2598334,34.0553916 L15.36,35.3608396 L16.4601666,34.0553916 Z M15.873857,36.2408032 C15.6346884,36.5245986 15.2107423,36.5607757 14.9269469,36.3216071 C14.8977668,36.2970156 14.8707345,36.2699833 14.846143,36.2408032 L13.813427,35.0153916 L12.48,35.0153916 C11.4196133,35.0153916 10.56,34.1557783 10.56,33.0953916 L10.56,24 C10.56,22.9396133 11.4196133,22.08 12.48,22.08 L24.48,22.08 C25.27529,22.08 25.92,22.72471 25.92,23.52 L25.92,33.0953916 C25.92,34.1557783 25.0603867,35.0153916 24,35.0153916 L16.906573,35.0153916 L15.873857,36.2408032 Z"/>
      <circle cx="21.12" cy="21.12" r="1" fill="#FFF"/>
      <circle cx="32.64" cy="21.12" r="1" fill="#FFF"/>
      <circle cx="26.88" cy="21.12" r="1" fill="#FFF"/>
      <path fill="#FFF" fill-rule="nonzero" d="M32.8363934,28.7672353 L35.52,28.7672353 C36.0501934,28.7672353 36.48,28.3374286 36.48,27.8072353 L36.48,13.919765 C36.48,13.6546684 36.2650967,13.439765 36,13.439765 L18.24,13.439765 C17.7098066,13.439765 17.28,13.8695717 17.28,14.399765 L17.28,27.8072353 C17.28,28.3374286 17.7098066,28.7672353 18.24,28.7672353 L30.0436066,28.7672353 L31.44,30.373999 L32.8363934,28.7672353 Z M33.2739616,29.7272353 L31.9472188,31.2538553 C31.7037663,31.5339845 31.2793195,31.5637169 30.9991904,31.3202645 C30.9755323,31.2997039 30.9533418,31.2775134 30.9327812,31.2538553 L29.6060384,29.7272353 L18.24,29.7272353 C17.1796133,29.7272353 16.32,28.867622 16.32,27.8072353 L16.32,14.399765 C16.32,13.3393783 17.1796133,12.479765 18.24,12.479765 L36,12.479765 C36.79529,12.479765 37.44,13.124475 37.44,13.919765 L37.44,27.8072353 C37.44,28.867622 36.5803867,29.7272353 35.52,29.7272353 L33.2739616,29.7272353 Z"/>
      <path fill="#424242" fill-rule="nonzero" d="M17.28,22.08 L27.84,22.08 L27.84,28.8 L18.28,28.8 C17.7277153,28.8 17.28,28.3522847 17.28,27.8 L17.28,22.08 Z"/>
    </g>
  </g>
</svg>
