<svg xmlns="http://www.w3.org/2000/svg" width="286" height="32" viewBox="0 0 286 32" xmlns:xlink="http://www.w3.org/1999/xlink">
  <defs>
    <polyline id="a" points=".023 .24 142.226 .24 142.226 31.977 .023 31.977"/>
  </defs>
  <g fill="none" fill-rule="evenodd">
    <text fill="#222222" fill-opacity=".8" font-family="BreeSerifSb, Bree Serif" font-size="24" font-weight="500">
      <tspan x="185" y="25">Checkout</tspan>
    </text>
    <path stroke="#CCCCCC" d="M164,0 L164,32"/>
    <mask id="b" fill="white">
      <use xlink:href="#a"/>
    </mask>
    <polygon fill="#008CD2" points="15.879 .24 0 16.12 15.879 32 19.471 28.408 7.184 16.12 19.473 3.832" mask="url(#b)"/>
    <polyline fill="#7DBE0F" points="38.943 16.12 23.062 .24 19.473 3.832 31.76 16.12 19.471 28.408 23.062 32 38.943 16.12" mask="url(#b)"/>
    <polyline fill="#005291" points="19.473 3.832 7.184 16.12 19.471 28.408 31.76 16.12 19.473 3.832" mask="url(#b)"/>
    <path fill="#005291" d="M47.542747 16.8535904C47.9737831 17.0556145 48.8435663 17.4180241 49.2460723 17.5880482 51.6769157 18.6128193 52.2621687 19.5940241 52.2621687 21.0648675 52.2621687 23.0396145 50.8075181 24.4186988 48.7240482 24.4186988 46.5114217 24.4186988 45.1196145 22.7701205 44.8246747 19.7999036L44.0555181 19.7999036 44.0555181 22.4586024C44.0555181 23.3380241 44.0084819 24.3115181 43.9456386 24.7799518L44.5979759 24.7799518C44.7656867 24.5251084 44.9337831 24.4433735 45.2175422 24.4433735 45.4457831 24.4433735 45.7538313 24.5459277 46.144 24.6754699 46.8314217 24.905253 47.7736867 25.2186988 49.010506 25.2186988 52.2960964 25.2186988 54.5029398 23.1440964 54.5029398 20.0586024 54.5029398 16.886747 52.7001446 15.8962892 49.728 14.6459759 47.5219277 13.7075663 46.2739277 13.0895422 46.2739277 11.259759 46.2739277 9.39219277 47.5805301 8.13725301 49.5259759 8.13725301 51.579759 8.13725301 52.8952289 9.60308434 53.1176867 12.1893012L53.8074217 12.1893012 53.8074217 10.1771566C53.8074217 9.5113253 53.8802892 8.42216867 53.9419759 7.95836145L53.2649639 7.95836145C53.1809157 8.08790361 52.9866024 8.31961446 52.6781687 8.31961446 52.3674217 8.31961446 51.9209639 8.07171084 51.6106024 7.93021687 51.2601446 7.76944578 50.4562892 7.41706024 49.1327229 7.41706024 46.2253494 7.41706024 44.1854458 9.42380723 44.1854458 12.1893012 44.1854458 14.2924337 45.252241 15.776 47.542747 16.8535904zM69.1855422 13.8170602L69.1855422 15.5670361C70.7816867 14.4994699 72.0489639 13.9442892 73.1165301 13.9442892 74.3055422 13.9442892 75.1953735 14.5256867 75.702747 15.6676627 77.4006747 14.4994699 78.797494 13.9442892 79.8608193 13.9442892 82.0186988 13.9442892 82.7026506 15.4648675 82.7026506 18.6097349L82.7026506 19.9043855C82.7026506 20.9430361 82.7026506 22.3390843 82.6270843 24.1152771L83.9217349 24.2664096 83.9217349 24.7741687 79.1760964 24.7741687 79.1760964 24.2664096 80.6211084 24.0894458C80.7502651 22.9470843 80.7764819 21.5282892 80.7764819 19.8276627 80.7764819 16.580241 80.6211084 15.1363855 78.6436627 15.1363855 77.9346506 15.1363855 76.9950843 15.4648675 75.8558072 16.2020241 75.954506 17.0876145 75.9811084 18.0765301 75.9811084 19.1691566L75.9811084 23.2524337 75.9811084 24.1152771 77.3262651 24.2664096 77.3262651 24.7741687 72.6072289 24.7741687 72.6072289 24.2664096 73.9751325 24.0894458C74.0541687 22.9224096 74.0541687 21.5013012 74.0541687 19.8276627 74.0541687 16.5301205 73.8502169 15.1363855 71.8978313 15.1363855 71.1853494 15.1363855 70.2480964 15.4648675 69.1855422 16.1750361L69.1855422 21.6778795C69.1855422 22.592 69.1855422 23.4297831 69.2580241 24.1152771L70.7550843 24.2664096 70.7550843 24.7741687 65.6562892 24.7741687 65.6562892 24.2664096 67.1548916 24.1152771C67.2061687 23.4297831 67.2559036 22.6182169 67.2559036 21.6778795L67.2559036 17.0378795C67.2559036 16.1503614 67.2061687 15.3634699 67.1548916 14.629012L65.581494 14.5511325 65.6562892 14.0441446 69.1855422 13.8170602" mask="url(#b)"/>
    <polyline fill="#005291" points="85.415 11.594 83.987 14.543 83.535 14.543 83.835 11.594 85.415 11.594" mask="url(#b)"/>
    <path fill="#005291" d="M85.0876145 16.7741687C85.0876145 18.1416867 85.7792771 19.1055422 87.2636145 19.8072289L88.0616867 20.1530602C88.777253 20.4506988 89.3937349 20.7086265 89.7989398 21.1870843 90.0803855 21.513253 90.2168675 21.9122892 90.2168675 22.4088675 90.2168675 23.6190843 89.3247229 24.4638072 88.0458795 24.4638072 86.6667952 24.4638072 85.8382651 23.4826024 85.6485783 21.6281446L85.6389398 21.5325301 85.0058795 21.5325301 85.0058795 23.2952289C85.0058795 23.858506 84.9831325 24.3273253 84.9395663 24.7244337L84.9264578 24.8466506 85.4689157 24.8466506 85.5009157 24.7980723C85.5830361 24.6754699 85.6655422 24.6326747 85.818988 24.6326747 85.9516145 24.6326747 86.1424578 24.6966747 86.3834217 24.777253 86.8248675 24.922988 87.429012 25.1253976 88.2278554 25.1253976 90.3614458 25.1253976 91.7941205 23.7779277 91.7941205 21.7723373 91.7941205 19.7100723 90.6286265 19.0708434 88.7105542 18.2635181 87.3025542 17.6647711 86.5669398 17.3004337 86.5669398 16.1850602 86.5669398 15.0249639 87.3472771 14.2777831 88.5544096 14.2777831 89.8170602 14.2777831 90.618988 15.1791807 90.757012 16.7521928L90.7662651 16.850506 91.3499759 16.850506 91.3499759 15.4964819C91.3499759 15.0766265 91.3750361 14.6436627 91.4317108 14.1324337L91.4452048 14.010988 90.889253 14.010988 90.8553253 14.0587952C90.7674217 14.1902651 90.6687229 14.2407711 90.5044819 14.2407711 90.4061687 14.2407711 90.2500241 14.1733012 90.0506988 14.0877108 89.6566747 13.9215422 89.0586988 13.6655422 88.2606265 13.6655422 86.4219759 13.6655422 85.0876145 14.9721446 85.0876145 16.7741687M56.2205301 16.6199518C56.2760482 14.8896386 57.878747 13.6628434 60.1754217 13.6628434 62.5835181 13.6628434 63.6260241 14.9073735 63.6260241 17.5194217L63.6260241 17.9253976 63.5126747 21.6778795C63.5126747 22.592 63.5126747 23.4297831 63.5897831 24.1152771L65.0856867 24.2664096 65.0856867 24.7741687 61.6539759 24.7741687 61.595759 23.6595663C60.4314217 24.5204819 59.2651566 24.9013976 58.0969639 24.9013976 56.5258795 24.9013976 55.5099759 23.9124819 55.5099759 22.4651566 55.5099759 20.4356627 57.5375422 19.1768675 61.6470361 18.6444337L61.723759 16.6827952 61.723759 16.4040482C61.723759 14.8557108 61.0899277 14.2099277 59.6950361 14.2099277 58.5110361 14.2099277 57.8432771 14.7550843 57.8432771 15.4656386 57.8432771 15.8866506 57.9246265 16.0886747 57.9246265 16.6207229 57.9246265 17.1404337 57.5799518 17.4716145 57.0721928 17.4716145 56.5405301 17.4716145 56.2205301 17.0906988 56.2205301 16.6207229L56.2205301 16.6199518 56.2205301 16.6199518zM61.5714699 22.4913735C61.5714699 21.4507952 61.595759 20.3751325 61.6470361 19.1579759 58.6544578 19.588241 57.2595663 20.3870843 57.2595663 22.0607229 57.2595663 23.2 57.9967229 23.9622169 59.1602892 23.9622169 59.9475663 23.9622169 60.709012 23.643759 61.5714699 23.1113253L61.5714699 22.4913735 61.5714699 22.4913735zM116.584867 21.6778795C116.584867 22.592 116.584867 23.4297831 116.658506 24.1152771L118.155181 24.2664096 118.155181 24.7741687 113.056386 24.7741687 113.056386 24.2664096 114.554988 24.1152771C114.605494 23.4297831 114.656771 22.6182169 114.656771 21.6778795L114.656771 10.9505542C114.656771 10.0626506 114.605494 9.27575904 114.554988 8.5413012L112.981976 8.46573494 113.056386 7.95836145 116.584867 7.73050602 116.584867 21.6778795M119.809542 17.0359518C119.809542 16.1480482 119.759036 15.3634699 119.706988 14.6266988L118.133976 14.5511325 118.210313 14.0441446 121.737253 13.8170602 121.737253 18.9910361C121.737253 22.2878072 121.939663 23.7093012 123.892434 23.7093012 124.60453 23.7093012 125.54294 23.3530602 126.605494 22.6436627L126.605494 17.0359518C126.605494 16.1480482 126.555759 15.3634699 126.50294 14.6266988L124.931855 14.5511325 125.005108 14.0441446 128.534747 13.8170602 128.534747 21.7800482C128.534747 22.6675663 128.578699 23.3773494 128.630361 24.1114217L130.133976 24.2664096 130.133976 24.7718554 126.66641 24.7718554 126.605494 23.2516627C125.009735 24.3169157 123.742843 24.9013976 122.672193 24.9013976 121.648964 24.9013976 119.809542 24.3901687 119.809542 21.2337349L119.809542 17.0359518M133.310843 21.1920964C133.310843 22.2604337 133.311614 23.0816386 133.361349 23.8457831 133.574554 23.9232771 134.190651 24.1719518 134.927036 24.1719518 137.01359 24.1719518 138.562313 22.4886747 138.562313 19.5450602 138.562313 16.7784096 137.146988 14.9204819 135.041542 14.9204819 134.418506 14.9204819 133.621205 15.2158072 133.310843 15.3881446L133.310843 21.1920964 133.310843 21.1920964zM135.295229 13.9134458C135.686169 13.7422651 136.004627 13.6693976 136.298024 13.6693976 138.762795 13.6693976 140.688964 16.1453494 140.688964 18.9320482 140.688964 22.5075663 138.058024 24.8994699 134.989494 24.8994699 133.163566 24.8994699 131.591325 24.32 131.271711 24.2159036 131.320675 23.6487711 131.380434 22.7600964 131.380434 21.3929639L131.380434 11.4070361C131.380434 10.0190843 131.299084 8.85166265 131.280193 8.5413012L129.707181 8.46573494 129.78159 7.95836145C130.656 7.90245783 132.587181 7.7860241 133.310843 7.72549398L133.310843 14.7701205 135.295229 13.9134458 135.295229 13.9134458zM112.173108 19.7979759C111.667663 22.1382169 109.886458 25.2129157 106.059566 25.2129157 101.087229 25.2129157 97.7341687 21.5282892 97.7341687 16.3146024 97.7341687 11.314506 100.904482 7.41706024 106.059566 7.41706024 108.630747 7.41706024 109.587663 8.3593253 110.335229 8.3593253 110.787084 8.3593253 110.954795 8.08790361 111.009928 7.95836145L111.686554 7.95836145C111.654554 8.15537349 111.550072 8.91720482 111.550072 9.81320482L111.550072 12.186988 110.901205 12.186988C110.454747 9.97127711 109.034795 8.13725301 106.284337 8.13725301 102.592771 8.13725301 100.741012 11.922506 100.741012 16.3146024 100.741012 20.4021205 102.314024 24.3786024 106.284337 24.3786024 109.61388 24.3786024 110.918169 21.5980723 111.391614 19.7979759L112.173108 19.7979759" mask="url(#b)"/>
  </g>
</svg>
